<mxfile host="Electron" agent="Mozilla/5.0 (Windows NT 10.0; Win64; x64) AppleWebKit/537.36 (KHTML, like Gecko) draw.io/27.0.2 Chrome/134.0.6998.205 Electron/35.3.0 Safari/537.36" version="27.0.2">
  <diagram name="Page-1" id="RnDowAln9ne0pFG_Ng3z">
    <mxGraphModel dx="853" dy="1043" grid="1" gridSize="10" guides="1" tooltips="1" connect="1" arrows="1" fold="1" page="1" pageScale="1" pageWidth="827" pageHeight="1169" math="0" shadow="0">
      <root>
        <mxCell id="0" />
        <mxCell id="1" parent="0" />
        <mxCell id="TPGH5s2cvWc2gtCexdry-3" style="edgeStyle=orthogonalEdgeStyle;rounded=0;orthogonalLoop=1;jettySize=auto;html=1;exitX=0.5;exitY=1;exitDx=0;exitDy=0;entryX=0.5;entryY=0;entryDx=0;entryDy=0;" edge="1" parent="1" source="TPGH5s2cvWc2gtCexdry-1" target="TPGH5s2cvWc2gtCexdry-2">
          <mxGeometry relative="1" as="geometry" />
        </mxCell>
        <mxCell id="TPGH5s2cvWc2gtCexdry-1" value="" style="ellipse;fillColor=strokeColor;html=1;" vertex="1" parent="1">
          <mxGeometry x="399" y="40" width="30" height="30" as="geometry" />
        </mxCell>
        <mxCell id="TPGH5s2cvWc2gtCexdry-5" style="edgeStyle=orthogonalEdgeStyle;rounded=0;orthogonalLoop=1;jettySize=auto;html=1;exitX=0.5;exitY=1;exitDx=0;exitDy=0;entryX=0.5;entryY=0;entryDx=0;entryDy=0;" edge="1" parent="1" source="TPGH5s2cvWc2gtCexdry-2" target="TPGH5s2cvWc2gtCexdry-4">
          <mxGeometry relative="1" as="geometry" />
        </mxCell>
        <mxCell id="TPGH5s2cvWc2gtCexdry-6" value="3 days to expiry" style="edgeLabel;html=1;align=center;verticalAlign=middle;resizable=0;points=[];" vertex="1" connectable="0" parent="TPGH5s2cvWc2gtCexdry-5">
          <mxGeometry x="-0.0606" relative="1" as="geometry">
            <mxPoint x="-1" as="offset" />
          </mxGeometry>
        </mxCell>
        <mxCell id="TPGH5s2cvWc2gtCexdry-2" value="Current Pass" style="html=1;align=center;verticalAlign=top;rounded=1;absoluteArcSize=1;arcSize=10;dashed=0;whiteSpace=wrap;" vertex="1" parent="1">
          <mxGeometry x="344" y="120" width="140" height="40" as="geometry" />
        </mxCell>
        <mxCell id="TPGH5s2cvWc2gtCexdry-8" style="edgeStyle=orthogonalEdgeStyle;rounded=0;orthogonalLoop=1;jettySize=auto;html=1;exitX=0.5;exitY=1;exitDx=0;exitDy=0;entryX=0.5;entryY=0;entryDx=0;entryDy=0;" edge="1" parent="1" source="TPGH5s2cvWc2gtCexdry-4" target="TPGH5s2cvWc2gtCexdry-7">
          <mxGeometry relative="1" as="geometry" />
        </mxCell>
        <mxCell id="TPGH5s2cvWc2gtCexdry-9" value="Open App" style="edgeLabel;html=1;align=center;verticalAlign=middle;resizable=0;points=[];" vertex="1" connectable="0" parent="TPGH5s2cvWc2gtCexdry-8">
          <mxGeometry x="-0.2111" y="-2" relative="1" as="geometry">
            <mxPoint as="offset" />
          </mxGeometry>
        </mxCell>
        <mxCell id="TPGH5s2cvWc2gtCexdry-4" value="Expiry Notice" style="html=1;align=center;verticalAlign=top;rounded=1;absoluteArcSize=1;arcSize=10;dashed=0;whiteSpace=wrap;" vertex="1" parent="1">
          <mxGeometry x="350" y="220" width="140" height="40" as="geometry" />
        </mxCell>
        <mxCell id="TPGH5s2cvWc2gtCexdry-14" style="edgeStyle=orthogonalEdgeStyle;rounded=0;orthogonalLoop=1;jettySize=auto;html=1;exitX=0.5;exitY=1;exitDx=0;exitDy=0;entryX=0.5;entryY=0;entryDx=0;entryDy=0;" edge="1" parent="1" source="TPGH5s2cvWc2gtCexdry-7" target="TPGH5s2cvWc2gtCexdry-10">
          <mxGeometry relative="1" as="geometry" />
        </mxCell>
        <mxCell id="TPGH5s2cvWc2gtCexdry-15" value="View Choices" style="edgeLabel;html=1;align=center;verticalAlign=middle;resizable=0;points=[];" vertex="1" connectable="0" parent="TPGH5s2cvWc2gtCexdry-14">
          <mxGeometry x="0.3444" y="-2" relative="1" as="geometry">
            <mxPoint as="offset" />
          </mxGeometry>
        </mxCell>
        <mxCell id="TPGH5s2cvWc2gtCexdry-7" value="Review Options" style="html=1;align=center;verticalAlign=top;rounded=1;absoluteArcSize=1;arcSize=10;dashed=0;whiteSpace=wrap;" vertex="1" parent="1">
          <mxGeometry x="350" y="320" width="140" height="40" as="geometry" />
        </mxCell>
        <mxCell id="TPGH5s2cvWc2gtCexdry-16" style="edgeStyle=orthogonalEdgeStyle;rounded=0;orthogonalLoop=1;jettySize=auto;html=1;exitX=0;exitY=0.5;exitDx=0;exitDy=0;entryX=0;entryY=0.25;entryDx=0;entryDy=0;" edge="1" parent="1" source="TPGH5s2cvWc2gtCexdry-10" target="TPGH5s2cvWc2gtCexdry-7">
          <mxGeometry relative="1" as="geometry" />
        </mxCell>
        <mxCell id="TPGH5s2cvWc2gtCexdry-17" value="Reconsider Options" style="edgeLabel;html=1;align=center;verticalAlign=middle;resizable=0;points=[];" vertex="1" connectable="0" parent="TPGH5s2cvWc2gtCexdry-16">
          <mxGeometry x="0.0178" relative="1" as="geometry">
            <mxPoint as="offset" />
          </mxGeometry>
        </mxCell>
        <mxCell id="TPGH5s2cvWc2gtCexdry-10" value="Select Pass" style="html=1;align=center;verticalAlign=top;rounded=1;absoluteArcSize=1;arcSize=10;dashed=0;whiteSpace=wrap;" vertex="1" parent="1">
          <mxGeometry x="350" y="420" width="140" height="40" as="geometry" />
        </mxCell>
        <mxCell id="TPGH5s2cvWc2gtCexdry-11" value="Update Payment" style="html=1;align=center;verticalAlign=top;rounded=1;absoluteArcSize=1;arcSize=10;dashed=0;whiteSpace=wrap;" vertex="1" parent="1">
          <mxGeometry x="360" y="540" width="140" height="40" as="geometry" />
        </mxCell>
        <mxCell id="TPGH5s2cvWc2gtCexdry-12" style="edgeStyle=orthogonalEdgeStyle;rounded=0;orthogonalLoop=1;jettySize=auto;html=1;exitX=1;exitY=0;exitDx=0;exitDy=0;entryX=1;entryY=1;entryDx=0;entryDy=0;" edge="1" parent="1" source="TPGH5s2cvWc2gtCexdry-7" target="TPGH5s2cvWc2gtCexdry-7">
          <mxGeometry relative="1" as="geometry" />
        </mxCell>
        <mxCell id="TPGH5s2cvWc2gtCexdry-13" value="Compare" style="edgeLabel;html=1;align=center;verticalAlign=middle;resizable=0;points=[];" vertex="1" connectable="0" parent="TPGH5s2cvWc2gtCexdry-12">
          <mxGeometry x="-0.0792" y="-5" relative="1" as="geometry">
            <mxPoint x="15" y="7" as="offset" />
          </mxGeometry>
        </mxCell>
        <mxCell id="TPGH5s2cvWc2gtCexdry-18" style="edgeStyle=orthogonalEdgeStyle;rounded=0;orthogonalLoop=1;jettySize=auto;html=1;exitX=0.5;exitY=1;exitDx=0;exitDy=0;entryX=0.431;entryY=0.142;entryDx=0;entryDy=0;entryPerimeter=0;" edge="1" parent="1" source="TPGH5s2cvWc2gtCexdry-10" target="TPGH5s2cvWc2gtCexdry-11">
          <mxGeometry relative="1" as="geometry" />
        </mxCell>
        <mxCell id="TPGH5s2cvWc2gtCexdry-19" value="Choose Pass" style="edgeLabel;html=1;align=center;verticalAlign=middle;resizable=0;points=[];" vertex="1" connectable="0" parent="TPGH5s2cvWc2gtCexdry-18">
          <mxGeometry x="-0.1009" relative="1" as="geometry">
            <mxPoint y="-2" as="offset" />
          </mxGeometry>
        </mxCell>
        <mxCell id="TPGH5s2cvWc2gtCexdry-24" style="edgeStyle=orthogonalEdgeStyle;rounded=0;orthogonalLoop=1;jettySize=auto;html=1;exitX=0.5;exitY=1;exitDx=0;exitDy=0;" edge="1" parent="1" source="TPGH5s2cvWc2gtCexdry-20" target="TPGH5s2cvWc2gtCexdry-23">
          <mxGeometry relative="1" as="geometry" />
        </mxCell>
        <mxCell id="TPGH5s2cvWc2gtCexdry-25" value="Payment Confirmed" style="edgeLabel;html=1;align=center;verticalAlign=middle;resizable=0;points=[];" vertex="1" connectable="0" parent="TPGH5s2cvWc2gtCexdry-24">
          <mxGeometry x="-0.1333" y="-3" relative="1" as="geometry">
            <mxPoint as="offset" />
          </mxGeometry>
        </mxCell>
        <mxCell id="TPGH5s2cvWc2gtCexdry-20" value="Payment Processing" style="html=1;align=center;verticalAlign=top;rounded=1;absoluteArcSize=1;arcSize=10;dashed=0;whiteSpace=wrap;" vertex="1" parent="1">
          <mxGeometry x="370" y="650" width="140" height="40" as="geometry" />
        </mxCell>
        <mxCell id="TPGH5s2cvWc2gtCexdry-21" style="edgeStyle=orthogonalEdgeStyle;rounded=0;orthogonalLoop=1;jettySize=auto;html=1;exitX=0.5;exitY=1;exitDx=0;exitDy=0;entryX=0.407;entryY=0.108;entryDx=0;entryDy=0;entryPerimeter=0;" edge="1" parent="1" source="TPGH5s2cvWc2gtCexdry-11" target="TPGH5s2cvWc2gtCexdry-20">
          <mxGeometry relative="1" as="geometry" />
        </mxCell>
        <mxCell id="TPGH5s2cvWc2gtCexdry-22" value="Submit Payment" style="edgeLabel;html=1;align=center;verticalAlign=middle;resizable=0;points=[];" vertex="1" connectable="0" parent="TPGH5s2cvWc2gtCexdry-21">
          <mxGeometry x="-0.0592" relative="1" as="geometry">
            <mxPoint as="offset" />
          </mxGeometry>
        </mxCell>
        <mxCell id="TPGH5s2cvWc2gtCexdry-27" style="edgeStyle=orthogonalEdgeStyle;rounded=0;orthogonalLoop=1;jettySize=auto;html=1;exitX=0;exitY=0.5;exitDx=0;exitDy=0;entryX=1;entryY=0.5;entryDx=0;entryDy=0;" edge="1" parent="1" source="TPGH5s2cvWc2gtCexdry-23" target="TPGH5s2cvWc2gtCexdry-26">
          <mxGeometry relative="1" as="geometry" />
        </mxCell>
        <mxCell id="TPGH5s2cvWc2gtCexdry-28" value="Setup Options" style="edgeLabel;html=1;align=center;verticalAlign=middle;resizable=0;points=[];" vertex="1" connectable="0" parent="TPGH5s2cvWc2gtCexdry-27">
          <mxGeometry x="0.0867" y="3" relative="1" as="geometry">
            <mxPoint x="1" as="offset" />
          </mxGeometry>
        </mxCell>
        <mxCell id="TPGH5s2cvWc2gtCexdry-31" style="edgeStyle=orthogonalEdgeStyle;rounded=0;orthogonalLoop=1;jettySize=auto;html=1;exitX=0.5;exitY=1;exitDx=0;exitDy=0;entryX=1;entryY=0.5;entryDx=0;entryDy=0;" edge="1" parent="1" source="TPGH5s2cvWc2gtCexdry-23" target="TPGH5s2cvWc2gtCexdry-29">
          <mxGeometry relative="1" as="geometry" />
        </mxCell>
        <mxCell id="TPGH5s2cvWc2gtCexdry-33" value="Start Using" style="edgeLabel;html=1;align=center;verticalAlign=middle;resizable=0;points=[];" vertex="1" connectable="0" parent="TPGH5s2cvWc2gtCexdry-31">
          <mxGeometry x="-0.1594" y="-1" relative="1" as="geometry">
            <mxPoint y="-1" as="offset" />
          </mxGeometry>
        </mxCell>
        <mxCell id="TPGH5s2cvWc2gtCexdry-23" value="Renewed Pass" style="html=1;align=center;verticalAlign=top;rounded=1;absoluteArcSize=1;arcSize=10;dashed=0;whiteSpace=wrap;" vertex="1" parent="1">
          <mxGeometry x="370" y="760" width="140" height="40" as="geometry" />
        </mxCell>
        <mxCell id="TPGH5s2cvWc2gtCexdry-30" style="edgeStyle=orthogonalEdgeStyle;rounded=0;orthogonalLoop=1;jettySize=auto;html=1;exitX=0.5;exitY=1;exitDx=0;exitDy=0;entryX=0;entryY=0.25;entryDx=0;entryDy=0;" edge="1" parent="1" source="TPGH5s2cvWc2gtCexdry-26" target="TPGH5s2cvWc2gtCexdry-29">
          <mxGeometry relative="1" as="geometry" />
        </mxCell>
        <mxCell id="TPGH5s2cvWc2gtCexdry-32" value="Setup Complete" style="edgeLabel;html=1;align=center;verticalAlign=middle;resizable=0;points=[];" vertex="1" connectable="0" parent="TPGH5s2cvWc2gtCexdry-30">
          <mxGeometry x="-0.4539" y="-4" relative="1" as="geometry">
            <mxPoint y="-1" as="offset" />
          </mxGeometry>
        </mxCell>
        <mxCell id="TPGH5s2cvWc2gtCexdry-26" value="Auto-Renewal Setup" style="html=1;align=center;verticalAlign=top;rounded=1;absoluteArcSize=1;arcSize=10;dashed=0;whiteSpace=wrap;" vertex="1" parent="1">
          <mxGeometry x="100" y="760" width="140" height="40" as="geometry" />
        </mxCell>
        <mxCell id="TPGH5s2cvWc2gtCexdry-34" style="edgeStyle=orthogonalEdgeStyle;rounded=0;orthogonalLoop=1;jettySize=auto;html=1;exitX=0;exitY=0.75;exitDx=0;exitDy=0;entryX=0;entryY=0.5;entryDx=0;entryDy=0;" edge="1" parent="1" source="TPGH5s2cvWc2gtCexdry-29" target="TPGH5s2cvWc2gtCexdry-2">
          <mxGeometry relative="1" as="geometry">
            <Array as="points">
              <mxPoint x="60" y="930" />
              <mxPoint x="60" y="140" />
            </Array>
          </mxGeometry>
        </mxCell>
        <mxCell id="TPGH5s2cvWc2gtCexdry-35" value="Continue Using" style="edgeLabel;html=1;align=center;verticalAlign=middle;resizable=0;points=[];" vertex="1" connectable="0" parent="TPGH5s2cvWc2gtCexdry-34">
          <mxGeometry x="0.0966" y="1" relative="1" as="geometry">
            <mxPoint as="offset" />
          </mxGeometry>
        </mxCell>
        <mxCell id="TPGH5s2cvWc2gtCexdry-37" style="edgeStyle=orthogonalEdgeStyle;rounded=0;orthogonalLoop=1;jettySize=auto;html=1;exitX=0.5;exitY=1;exitDx=0;exitDy=0;entryX=0.5;entryY=0;entryDx=0;entryDy=0;" edge="1" parent="1" source="TPGH5s2cvWc2gtCexdry-29" target="TPGH5s2cvWc2gtCexdry-36">
          <mxGeometry relative="1" as="geometry" />
        </mxCell>
        <mxCell id="TPGH5s2cvWc2gtCexdry-29" value="Using Pass" style="html=1;align=center;verticalAlign=top;rounded=1;absoluteArcSize=1;arcSize=10;dashed=0;whiteSpace=wrap;" vertex="1" parent="1">
          <mxGeometry x="259" y="900" width="140" height="40" as="geometry" />
        </mxCell>
        <mxCell id="TPGH5s2cvWc2gtCexdry-36" value="" style="ellipse;html=1;shape=endState;fillColor=strokeColor;" vertex="1" parent="1">
          <mxGeometry x="310" y="1010" width="30" height="30" as="geometry" />
        </mxCell>
      </root>
    </mxGraphModel>
  </diagram>
</mxfile>
